<?xml version="1.0" encoding="UTF-8" standalone="no"?>
<!-- Created with Inkscape (http://www.inkscape.org/) -->

<svg
   version="1.1"
   id="svg1"
   width="546.1333"
   height="546.1333"
   viewBox="0 0 546.1333 546.1333"
   sodipodi:docname="facebook.png"
   xmlns:inkscape="http://www.inkscape.org/namespaces/inkscape"
   xmlns:sodipodi="http://sodipodi.sourceforge.net/DTD/sodipodi-0.dtd"
   xmlns="http://www.w3.org/2000/svg"
   xmlns:svg="http://www.w3.org/2000/svg">
  <defs
     id="defs1" />
  <sodipodi:namedview
     id="namedview1"
     pagecolor="#ffffff"
     bordercolor="#000000"
     borderopacity="0.25"
     inkscape:showpageshadow="2"
     inkscape:pageopacity="0.0"
     inkscape:pagecheckerboard="0"
     inkscape:deskcolor="#d1d1d1">
    <inkscape:page
       x="0"
       y="0"
       width="546.1333"
       height="546.1333"
       id="page2"
       margin="0"
       bleed="0" />
  </sodipodi:namedview>
  <g
     inkscape:groupmode="layer"
     inkscape:label="Image"
     id="g1">
    <path
       style="fill:#000000"
       d="m 78.179143,538.47991 c -7.68594,-1.29419 -15.40042,-4.04704 -24.81428,-8.8548 -6.52807,-3.33396 -10.79929,-6.62403 -18.17607,-14.0008 -10.646881,-10.64688 -16.376701,-20.15138 -20.924691,-34.7094 l -2.49924,-8 V 266.51492 60.114934 l 2.49924,-8 C 18.812092,37.556908 24.541912,28.052416 35.188793,17.405535 45.835683,6.7586541 55.340173,1.0288351 69.898193,-3.5191589 l 8,-2.499236 H 284.29818 490.69815 l 8,2.499236 c 14.558,4.547994 24.0625,10.277813 34.7094,20.9246939 10.6469,10.646881 16.3767,20.151373 20.9247,34.709399 l 2.4993,8 V 266.51492 472.91491 l -2.4993,8 c -4.548,14.55802 -10.2778,24.06252 -20.9247,34.7094 -10.4157,10.41572 -19.6354,16.05371 -34.176,20.8991 l -7.4667,2.48812 -71.73334,0.33393 -71.73333,0.33392 v -96.58223 -96.58223 h 40.44858 40.44857 l 0.60438,-2.93334 c 0.3324,-1.61333 3.73671,-21.89333 7.56513,-45.06666 3.82842,-23.17333 7.23273,-43.45333 7.56513,-45.06667 l 0.60437,-2.93333 h -48.61808 -48.61808 v -32.53333 -32.53333 h 48.53333 48.53333 v -48.0524 -48.052396 l -56.26667,0.35523 c -54.3831,0.34334 -56.55232,0.43493 -64.79999,2.73603 -34.07443,9.506746 -59.59049,35.030036 -68.99399,69.013536 -2.20472,7.96771 -2.38719,11.20238 -2.75287,48.8 l -0.39164,40.26666 h -31.93075 -31.93074 v 48 48 h 31.99999 32 v 96.53332 96.53333 l -84.53333,-0.12546 c -46.49333,-0.069 -86.806897,-0.50829 -89.585707,-0.9762 z"
       id="path1" />
  </g>
</svg>
