<?xml version="1.0" encoding="UTF-8" standalone="no"?>
<!-- Created with Inkscape (http://www.inkscape.org/) -->

<svg
   version="1.1"
   id="svg1"
   width="512"
   height="512"
   viewBox="0 0 512 512"
   sodipodi:docname="instagram.png"
   xmlns:inkscape="http://www.inkscape.org/namespaces/inkscape"
   xmlns:sodipodi="http://sodipodi.sourceforge.net/DTD/sodipodi-0.dtd"
   xmlns="http://www.w3.org/2000/svg"
   xmlns:svg="http://www.w3.org/2000/svg">
  <defs
     id="defs1" />
  <sodipodi:namedview
     id="namedview1"
     pagecolor="#ffffff"
     bordercolor="#000000"
     borderopacity="0.25"
     inkscape:showpageshadow="2"
     inkscape:pageopacity="0.0"
     inkscape:pagecheckerboard="0"
     inkscape:deskcolor="#d1d1d1">
    <inkscape:page
       x="0"
       y="0"
       width="512"
       height="512"
       id="page2"
       margin="0"
       bleed="0" />
  </sodipodi:namedview>
  <g
     inkscape:groupmode="layer"
     inkscape:label="Image"
     id="g1">
    <path
       style="fill:#000000"
       d="M 236.23377,508.58947 C 163.2731,501.58478 97.00608,462.90333 54.87252,402.72511 31.84356,369.83348 17.31939,332.25317 11.58546,290.72277 c -1.7076197,-12.36818 -1.7076197,-49.63182 0,-62 C 21.83015,154.52127 60.79514,91.987334 122.2097,51.184709 153.7289,30.243968 189.07865,17.104628 228.72276,11.594292 c 12.14613,-1.6882531 49.63061,-1.7316661 61.5,-0.07123 47.962,6.709524 88.91083,23.951615 124.93166,52.604272 65.66724,52.234796 101.16683,134.854486 93.49525,217.595426 -9.4945,102.40182 -78.9994,187.65086 -177.27783,217.4345 -29.13704,8.83009 -64.69267,12.35516 -95.13807,9.4322 z m 109.01067,-98.55758 c 41.78868,-9.53953 64.3975,-36.72072 68.57063,-82.43825 0.67509,-7.39578 0.90861,-35.244 0.64149,-76.5 -0.40433,-62.44651 -0.50274,-65.24459 -2.63337,-74.87087 -3.85853,-17.43297 -11.23646,-32.10173 -21.60043,-42.9458 -10.92336,-11.42938 -26.35006,-19.61326 -44.97832,-23.86106 -8.54259,-1.94796 -12.73901,-2.07762 -79.02168,-2.44158 -72.8487,-0.40002 -82.20999,-0.0342 -97.194,3.79806 -15.25451,3.90144 -29.34073,11.83875 -39.58189,22.30359 -10.51589,10.74559 -17.94075,25.53083 -21.91857,43.64679 -2.28963,10.42756 -2.30554,11.00016 -2.30554,83 0,71.99984 0.0159,72.57244 2.30554,83 3.97782,18.11596 11.40268,32.9012 21.91857,43.64679 13.40952,13.70241 32.06083,22.29861 54.77589,25.24564 3.85,0.4995 39.625,0.81097 79.5,0.69217 69.18217,-0.20613 72.91286,-0.31026 81.52168,-2.27548 z M 189.22276,383.07321 c -8.53254,-1.13444 -18.70416,-3.87869 -24.5,-6.60997 -9.05151,-4.26552 -18.53705,-13.92054 -23.32375,-23.74047 -7.42414,-15.23065 -7.17625,-12.01818 -7.17625,-93 0,-66.35823 0.15052,-73.05064 1.77677,-79 5.63675,-20.62103 17.81731,-34.50891 35.51925,-40.49791 12.68515,-4.29168 21.10043,-4.67177 94.20398,-4.25479 76.28493,0.43513 75.09987,0.3366 89.74406,7.46093 13.10753,6.37675 23.20875,19.84007 27.97917,37.29177 1.62625,5.94936 1.77677,12.64177 1.77677,79 0,66.07912 -0.15589,73.07567 -1.7602,79 -4.62794,17.08993 -15.07494,31.00586 -27.99574,37.29177 -14.77001,7.18554 -13.08014,7.05243 -92.24406,7.26599 -39.05,0.10535 -72.35,0.0121 -74,-0.20732 z m 95,-45.75762 c 25.98895,-8.82899 44.29429,-27.13727 53.0843,-53.09282 3.86901,-11.42459 4.55096,-30.16813 1.55389,-42.70926 -8.9434,-37.42335 -40.74961,-62.75754 -78.82281,-62.78373 -22.54994,-0.0155 -42.13846,7.98433 -57.73125,23.57712 -15.59279,15.59279 -23.59264,35.18131 -23.57712,57.73125 0.0259,37.59435 24.96827,69.361 61.80038,78.70895 11.7644,2.98579 32.70988,2.29955 43.69261,-1.43151 z m -40.5,-27.86864 c -8.93309,-3.05674 -15.15142,-6.90484 -21.37214,-13.22575 -9.68152,-9.83744 -14.62786,-22.17921 -14.62786,-36.49843 0,-14.55708 5.02868,-26.86868 15.08,-36.92 10.05132,-10.05132 22.36292,-15.08 36.92,-15.08 14.55708,0 26.86868,5.02868 36.92,15.08 10.05132,10.05132 15.08,22.36292 15.08,36.92 0,4.97048 -0.67726,10.94274 -1.59538,14.0685 -5.16296,17.57741 -18.75871,31.17316 -36.33612,36.33612 -8.14782,2.39324 -22.00216,2.07972 -30.0685,-0.68044 z M 349.73293,192.47277 c 5.67831,-3.86463 7.48983,-7.19025 7.48983,-13.75 0,-8.98919 -5.34223,-14.89408 -14.24917,-15.74992 -16.77591,-1.61195 -24.33498,20.0376 -10.29888,29.49652 4.60859,3.10573 12.49764,3.1073 17.05822,0.003 z"
       id="path1" />
  </g>
</svg>
