<?xml version="1.0" encoding="UTF-8" standalone="no"?>
<!-- Created with Inkscape (http://www.inkscape.org/) -->

<svg
   width="46.174152mm"
   height="46.012001mm"
   viewBox="0 0 46.174152 46.012001"
   version="1.1"
   id="svg1"
   xml:space="preserve"
   sodipodi:docname="logout.svg"
   xmlns:inkscape="http://www.inkscape.org/namespaces/inkscape"
   xmlns:sodipodi="http://sodipodi.sourceforge.net/DTD/sodipodi-0.dtd"
   xmlns="http://www.w3.org/2000/svg"
   xmlns:svg="http://www.w3.org/2000/svg"><sodipodi:namedview
     id="namedview1"
     pagecolor="#ffffff"
     bordercolor="#000000"
     borderopacity="0.25"
     inkscape:showpageshadow="2"
     inkscape:pageopacity="0.0"
     inkscape:pagecheckerboard="0"
     inkscape:deskcolor="#d1d1d1"
     inkscape:document-units="mm"><inkscape:page
       x="0"
       y="0"
       width="46.174152"
       height="46.012001"
       id="page2"
       margin="0"
       bleed="0" /></sodipodi:namedview><defs
     id="defs1" /><g
     inkscape:label="Taso 1"
     inkscape:groupmode="layer"
     id="layer1"
     transform="translate(-62.52396,-198.54317)"><path
       style="fill:#ffffff;stroke-width:0.319742"
       d="m 67.049651,244.4213 c -2.108487,-0.45285 -3.932357,-2.29343 -4.376616,-4.41671 -0.198767,-0.94999 -0.198767,-35.95748 0,-36.90746 0.342831,-1.63852 1.532271,-3.17655 3.026096,-3.91296 1.347243,-0.66415 0.944483,-0.641 11.141377,-0.64053 10.231898,6.4e-4 9.506985,-0.0474 10.136068,0.6691 0.379479,0.4322 0.466932,0.66803 0.466932,1.25916 0,0.61554 -0.281367,1.15423 -0.798604,1.52897 l -0.392141,0.28411 -9.218041,0.0451 c -8.777824,0.043 -9.233127,0.0532 -9.53388,0.21359 -0.443718,0.23669 -0.708612,0.4961 -0.933723,0.91439 l -0.194253,0.36095 v 17.73183 17.73182 l 0.194253,0.36096 c 0.225111,0.41828 0.490005,0.67769 0.933723,0.91438 0.300753,0.16043 0.756056,0.17063 9.53388,0.21359 l 9.218041,0.0451 0.392141,0.28411 c 0.517237,0.37474 0.798604,0.91343 0.798604,1.52898 0,0.59113 -0.08745,0.82695 -0.466932,1.25916 -0.629588,0.71706 0.102957,0.66932 -10.181187,0.66349 -7.483122,-0.004 -9.266521,-0.0282 -9.745738,-0.13117 z m 27.581197,-9.51255 c -1.018468,-0.32518 -1.579797,-1.36479 -1.284807,-2.37952 0.135651,-0.46662 0.307637,-0.65057 4.428603,-4.7366 2.358106,-2.33812 4.287466,-4.27265 4.287466,-4.29895 0,-0.0263 -5.107905,-0.0478 -11.350903,-0.0478 H 79.360302 l -0.397401,-0.20303 c -0.498954,-0.25492 -0.862351,-0.71005 -1.008703,-1.26334 -0.215948,-0.81639 0.210425,-1.71276 1.008703,-2.1206 l 0.397401,-0.20303 h 11.350905 c 6.242998,0 11.350903,-0.0215 11.350903,-0.0478 0,-0.0263 -1.92936,-1.96082 -4.287466,-4.29894 -4.120966,-4.08604 -4.292952,-4.26998 -4.428603,-4.73661 -0.468809,-1.61264 1.214649,-2.99418 2.707704,-2.22209 0.352339,0.1822 12.298545,11.98834 12.488885,12.34246 0.22707,0.42244 0.20093,1.36588 -0.049,1.76771 -0.27625,0.44419 -12.099556,12.11476 -12.464494,12.30348 -0.357148,0.18469 -1.048884,0.25628 -1.398308,0.14471 z"
       id="path1"
       inkscape:export-filename="path1.png"
       inkscape:export-xdpi="96"
       inkscape:export-ydpi="96" /></g></svg>
