<?xml version="1.0" encoding="UTF-8" standalone="no"?>
<!-- Created with Inkscape (http://www.inkscape.org/) -->

<svg
   width="46.346531"
   height="46.313755"
   viewBox="0 0 12.26252 12.253847"
   version="1.1"
   id="svg1"
   inkscape:version="1.4.2 (f4327f4, 2025-05-13)"
   sodipodi:docname="admin.svg"
   xml:space="preserve"
   inkscape:export-batch-path="C:\Users\213598\Desktop"
   inkscape:export-batch-name="nav"
   xmlns:inkscape="http://www.inkscape.org/namespaces/inkscape"
   xmlns:sodipodi="http://sodipodi.sourceforge.net/DTD/sodipodi-0.dtd"
   xmlns="http://www.w3.org/2000/svg"
   xmlns:svg="http://www.w3.org/2000/svg"><sodipodi:namedview
     id="namedview1"
     pagecolor="#ffffff"
     bordercolor="#000000"
     borderopacity="0.25"
     inkscape:showpageshadow="2"
     inkscape:pageopacity="0.0"
     inkscape:pagecheckerboard="0"
     inkscape:deskcolor="#d1d1d1"
     inkscape:document-units="mm"
     inkscape:zoom="0.5"
     inkscape:cx="1863"
     inkscape:cy="1407"
     inkscape:window-width="2560"
     inkscape:window-height="1369"
     inkscape:window-x="-8"
     inkscape:window-y="-8"
     inkscape:window-maximized="1"
     inkscape:current-layer="layer1"
     showguides="false" /><defs
     id="defs1" /><g
     inkscape:label="Taso 1"
     inkscape:groupmode="layer"
     id="layer1"
     transform="translate(-458.55725,-6.86916)"><g
       id="g31"
       transform="translate(41.275005,-221.72096)"><path
         style="fill:#ffffff;stroke-width:0.0999923"
         d="m 422.32872,240.82416 c -0.2953,-0.0704 -0.55788,-0.28545 -0.70041,-0.57367 l -0.0998,-0.20183 -0.009,-0.58102 c -0.0109,-0.70357 0.002,-0.76759 0.19263,-0.95731 0.26877,-0.26763 0.60779,-0.26763 0.87542,0 0.17248,0.17248 0.19753,0.26274 0.19753,0.71168 v 0.3607 h 2.75147 2.75145 v -4.86797 -4.86797 h -2.75145 -2.75147 v 0.36071 c 0,0.44894 -0.025,0.53919 -0.19753,0.71167 -0.26763,0.26763 -0.60665,0.26763 -0.87542,0 -0.19054,-0.18972 -0.20341,-0.25373 -0.19263,-0.95731 l 0.009,-0.58101 0.0988,-0.19982 c 0.11901,-0.24068 0.27229,-0.39071 0.51816,-0.50719 l 0.17672,-0.0837 h 3.21444 3.21445 l 0.17673,0.0837 c 0.24596,0.11652 0.39916,0.26651 0.51816,0.5073 l 0.0988,0.19992 v 5.33233 5.33233 l -0.0837,0.17672 c -0.11652,0.24595 -0.26652,0.39916 -0.50729,0.51817 l -0.19992,0.0988 -3.16292,0.004 c -1.78569,0.003 -3.20616,-0.006 -3.26223,-0.0195 z m 1.39567,-3.14366 c -0.13078,-0.0607 -0.26189,-0.19583 -0.31613,-0.32588 -0.0525,-0.12579 -0.0527,-0.36466 -4.1e-4,-0.49114 0.0268,-0.065 0.28031,-0.33841 0.74721,-0.80608 l 0.70657,-0.7077 h -3.51544 c -2.68279,0 -3.54124,-0.008 -3.62434,-0.0322 -0.22736,-0.0672 -0.4396,-0.35819 -0.4396,-0.60278 0,-0.24459 0.21224,-0.53561 0.4396,-0.60278 0.0831,-0.0245 0.94155,-0.0322 3.62434,-0.0322 h 3.51544 l -0.70657,-0.70771 c -0.4669,-0.46766 -0.72034,-0.74107 -0.74721,-0.80607 -0.0556,-0.13476 -0.051,-0.37933 0.009,-0.51013 0.0607,-0.13078 0.19585,-0.26189 0.3259,-0.31614 0.13479,-0.0562 0.37911,-0.0516 0.51014,0.01 0.0715,0.0334 0.52723,0.47322 1.4044,1.35531 1.37843,1.38616 1.36029,1.36468 1.36029,1.61011 0,0.24543 0.0181,0.22396 -1.36029,1.61012 -0.87717,0.88209 -1.33292,1.32191 -1.4044,1.35531 -0.14002,0.0654 -0.38855,0.0656 -0.52913,3e-4 z"
         id="path12" /></g></g></svg>
