<?xml version="1.0" encoding="UTF-8" standalone="no"?>
<!-- Created with Inkscape (http://www.inkscape.org/) -->

<svg
   width="54.683693"
   height="54.658382"
   viewBox="0 0 14.468394 14.461697"
   version="1.1"
   id="svg1"
   inkscape:version="1.4.2 (f4327f4, 2025-05-13)"
   sodipodi:docname="admin.svg"
   xml:space="preserve"
   inkscape:export-batch-path="C:\Users\213598\Desktop"
   inkscape:export-batch-name="nav"
   xmlns:inkscape="http://www.inkscape.org/namespaces/inkscape"
   xmlns:sodipodi="http://sodipodi.sourceforge.net/DTD/sodipodi-0.dtd"
   xmlns="http://www.w3.org/2000/svg"
   xmlns:svg="http://www.w3.org/2000/svg"><sodipodi:namedview
     id="namedview1"
     pagecolor="#ffffff"
     bordercolor="#000000"
     borderopacity="0.25"
     inkscape:showpageshadow="2"
     inkscape:pageopacity="0.0"
     inkscape:pagecheckerboard="0"
     inkscape:deskcolor="#d1d1d1"
     inkscape:document-units="mm"
     inkscape:zoom="0.5"
     inkscape:cx="1863"
     inkscape:cy="1407"
     inkscape:window-width="2560"
     inkscape:window-height="1369"
     inkscape:window-x="-8"
     inkscape:window-y="-8"
     inkscape:window-maximized="1"
     inkscape:current-layer="layer1"
     showguides="false" /><defs
     id="defs1" /><g
     inkscape:label="Taso 1"
     inkscape:groupmode="layer"
     id="layer1"
     transform="translate(-437.26005,-5.1242094)"><g
       id="g31"
       transform="translate(41.275005,-221.72096)"><path
         style="fill:#ffffff;fill-opacity:1;stroke-width:0.106894"
         d="m 397.43617,241.29434 c -0.39012,-0.0824 -0.70056,-0.24311 -0.95003,-0.49198 -0.3397,-0.33888 -0.53209,-0.84663 -0.497,-1.31163 0.0305,-0.40375 0.25156,-1.14877 0.52161,-1.75784 0.5088,-1.14749 1.41743,-2.25223 2.45815,-2.98868 0.44623,-0.31577 1.0895,-0.65894 1.60661,-0.85707 0.15557,-0.0596 0.29226,-0.11601 0.30376,-0.1254 0.0109,-0.01 -0.0687,-0.0928 -0.17831,-0.18559 -0.63102,-0.53385 -1.07477,-1.30453 -1.26141,-2.19075 -0.0713,-0.33884 -0.0701,-1.07769 0.002,-1.42827 0.32425,-1.56796 1.49136,-2.73082 3.07096,-3.05974 0.33969,-0.0707 1.07938,-0.0692 1.42826,0.002 1.56771,0.3242 2.73585,1.49199 3.0534,3.05254 0.26563,1.3054 -0.25618,2.80059 -1.26931,3.63698 -0.10253,0.0847 -0.17687,0.16182 -0.1651,0.17145 0.0121,0.01 0.13593,0.0599 0.27594,0.11175 0.41151,0.15237 0.659,0.28026 0.73222,0.37835 0.22097,0.29608 0.13475,0.69066 -0.18586,0.85042 -0.18412,0.0917 -0.30227,0.0917 -0.51809,-1e-4 -0.62479,-0.26585 -1.12691,-0.41893 -1.68031,-0.51228 -0.4631,-0.0781 -1.50738,-0.0705 -1.98225,0.0144 -2.43738,0.43607 -4.34722,2.16666 -4.99352,4.52482 -0.0535,0.19531 -0.0973,0.40426 -0.0973,0.46432 0,0.20532 0.13283,0.42058 0.32526,0.52709 0.0774,0.0428 0.40262,0.0482 3.73327,0.0612 3.50574,0.0136 3.65263,0.0163 3.75608,0.0676 0.22172,0.11018 0.3438,0.38726 0.27838,0.63186 -0.0456,0.17055 -0.14177,0.29635 -0.27838,0.36421 -0.10375,0.0516 -0.23935,0.0536 -3.77022,0.0574 -2.01441,0.002 -3.68803,-0.001 -3.71913,-0.009 z m 6.24463,-7.9431 c 0.56427,-0.0984 1.03707,-0.34665 1.44968,-0.76117 0.29677,-0.29815 0.50713,-0.62015 0.63376,-0.9701 0.3677,-1.0162 0.12931,-2.09088 -0.63287,-2.85308 -0.56045,-0.56044 -1.26195,-0.83383 -2.03872,-0.79451 -1.63247,0.0826 -2.82481,1.5659 -2.54563,3.16683 0.0984,0.56427 0.34664,1.03707 0.76118,1.44968 0.64316,0.64021 1.49798,0.91488 2.3726,0.76235 z m 3.89595,7.92438 c -0.13302,-0.0425 -0.29231,-0.20863 -0.33433,-0.34887 -0.0239,-0.0797 -0.0347,-0.3677 -0.0347,-0.92439 v -0.80867 l -0.85555,-0.008 c -0.77219,-0.007 -0.86602,-0.0135 -0.96319,-0.0618 -0.13661,-0.0678 -0.23276,-0.19366 -0.27838,-0.3642 -0.0654,-0.24461 0.0567,-0.52173 0.27838,-0.63187 0.0972,-0.0483 0.19098,-0.0542 0.96203,-0.0618 l 0.85437,-0.009 0.008,-0.85437 c 0.007,-0.77105 0.0135,-0.86487 0.0618,-0.96203 0.0678,-0.1366 0.19366,-0.23276 0.3642,-0.27837 0.24461,-0.0654 0.52174,0.0567 0.63187,0.27837 0.0483,0.0972 0.0542,0.19098 0.0618,0.96203 l 0.008,0.85437 0.85438,0.009 c 0.77105,0.007 0.86487,0.0135 0.96203,0.0618 0.13661,0.0678 0.23276,0.19367 0.27837,0.36421 0.0654,0.24461 -0.0567,0.52174 -0.27837,0.63186 -0.0972,0.0483 -0.19101,0.0542 -0.9632,0.0618 l -0.85555,0.008 v 0.80867 c 0,0.90305 -0.0121,0.98261 -0.16968,1.14046 -0.1537,0.15369 -0.37294,0.20283 -0.59261,0.1328 z"
         id="path14" /></g></g></svg>
