<?xml version="1.0" encoding="UTF-8" standalone="no"?>
<!-- Created with Inkscape (http://www.inkscape.org/) -->

<svg
   width="34.399296"
   height="42.140076"
   viewBox="0 0 9.1014803 11.149561"
   version="1.1"
   id="svg1"
   inkscape:version="1.4.2 (f4327f4, 2025-05-13)"
   sodipodi:docname="admin.svg"
   xml:space="preserve"
   inkscape:export-batch-path="C:\Users\213598\Desktop"
   inkscape:export-batch-name="nav"
   xmlns:inkscape="http://www.inkscape.org/namespaces/inkscape"
   xmlns:sodipodi="http://sodipodi.sourceforge.net/DTD/sodipodi-0.dtd"
   xmlns="http://www.w3.org/2000/svg"
   xmlns:svg="http://www.w3.org/2000/svg"><sodipodi:namedview
     id="namedview1"
     pagecolor="#ffffff"
     bordercolor="#000000"
     borderopacity="0.25"
     inkscape:showpageshadow="2"
     inkscape:pageopacity="0.0"
     inkscape:pagecheckerboard="0"
     inkscape:deskcolor="#d1d1d1"
     inkscape:document-units="mm"
     inkscape:zoom="0.5"
     inkscape:cx="1863"
     inkscape:cy="1407"
     inkscape:window-width="2560"
     inkscape:window-height="1369"
     inkscape:window-x="-8"
     inkscape:window-y="-8"
     inkscape:window-maximized="1"
     inkscape:current-layer="layer1"
     showguides="false" /><defs
     id="defs1" /><g
     inkscape:label="Taso 1"
     inkscape:groupmode="layer"
     id="layer1"
     transform="translate(-489.95437,-5.3911007)"><g
       id="g31"
       transform="translate(41.275005,-221.72096)"><path
         style="fill:#ffffff;fill-opacity:1;stroke-width:1.96348"
         d="m 449.28891,238.21326 c -0.24241,-0.0872 -0.44125,-0.28425 -0.54713,-0.54221 l -0.0523,-0.12723 -0.008,-3.45794 c -0.006,-2.45818 8e-4,-3.50369 0.0201,-3.61612 0.0677,-0.39527 0.34828,-0.68019 0.74133,-0.75286 0.0825,-0.0157 0.44539,-0.0265 0.85362,-0.0265 h 0.71011 l 0.0157,-0.34701 c 0.0177,-0.41282 0.0756,-0.67251 0.21106,-0.96157 0.27719,-0.59148 0.77909,-1.01708 1.41667,-1.20128 0.2568,-0.0742 0.72401,-0.0911 0.996,-0.0359 0.4231,0.0856 0.78729,0.27242 1.08776,0.55783 0.22398,0.21276 0.36684,0.40952 0.49335,0.67948 0.13548,0.28906 0.19242,0.54875 0.21107,0.96157 l 0.0157,0.34701 h 0.71011 c 0.40642,0 0.77192,0.0118 0.8546,0.0265 0.39162,0.0717 0.67281,0.35851 0.74082,0.75551 0.0196,0.10897 0.0245,1.18993 0.0196,3.61352 l -0.008,3.45795 -0.053,0.12919 c -0.10545,0.257 -0.30798,0.45547 -0.55284,0.54153 -0.13254,0.0465 -0.2235,0.0477 -3.94129,0.0467 -3.70263,-8.8e-4 -3.80912,-0.002 -3.93679,-0.0481 z m 7.67886,-0.7844 c 0.034,-0.0483 0.0379,-0.41664 0.0379,-3.45794 0,-3.37138 -4.9e-4,-3.4043 -0.0487,-3.45254 -0.0466,-0.0465 -0.0813,-0.0487 -0.77713,-0.0487 h -0.72841 l -0.008,0.38539 c -0.008,0.37117 -0.01,0.38906 -0.0738,0.48451 -0.11487,0.17337 -0.37196,0.22654 -0.5289,0.10936 -0.14805,-0.11054 -0.15944,-0.14804 -0.17259,-0.57306 l -0.0118,-0.39405 h -1.42456 -1.42458 l -0.0118,0.39405 c -0.0137,0.42584 -0.0242,0.46232 -0.17416,0.5742 -0.15688,0.11722 -0.42604,0.0552 -0.53729,-0.1237 -0.0507,-0.0817 -0.0563,-0.12389 -0.064,-0.47314 l -0.008,-0.38352 h -0.72817 c -0.69593,0 -0.73057,0.002 -0.7771,0.0487 -0.0483,0.0483 -0.0487,0.0811 -0.0487,3.45254 0,3.04131 0.004,3.40958 0.0379,3.45794 l 0.0379,0.0542 h 3.69869 3.69871 z m -2.30685,-8.0611 c -0.0222,-0.50279 -0.13253,-0.77153 -0.44168,-1.07764 -0.27451,-0.2717 -0.59285,-0.40173 -0.98359,-0.40173 -0.3937,0 -0.71936,0.13175 -0.99295,0.40181 -0.31323,0.30913 -0.42334,0.57718 -0.4427,1.07756 l -0.0118,0.32265 h 1.44387 1.44384 z"
         id="path8" /></g></g></svg>
