<?xml version="1.0" encoding="UTF-8" standalone="no"?>
<!-- Created with Inkscape (http://www.inkscape.org/) -->

<svg
   width="56.326786"
   height="56.350426"
   viewBox="0 0 14.903129 14.909383"
   version="1.1"
   id="svg1"
   inkscape:version="1.4.2 (f4327f4, 2025-05-13)"
   sodipodi:docname="admin.svg"
   xml:space="preserve"
   inkscape:export-batch-path="C:\Users\213598\Desktop"
   inkscape:export-batch-name="nav"
   xmlns:inkscape="http://www.inkscape.org/namespaces/inkscape"
   xmlns:sodipodi="http://sodipodi.sourceforge.net/DTD/sodipodi-0.dtd"
   xmlns="http://www.w3.org/2000/svg"
   xmlns:svg="http://www.w3.org/2000/svg"><sodipodi:namedview
     id="namedview1"
     pagecolor="#ffffff"
     bordercolor="#000000"
     borderopacity="0.25"
     inkscape:showpageshadow="2"
     inkscape:pageopacity="0.0"
     inkscape:pagecheckerboard="0"
     inkscape:deskcolor="#d1d1d1"
     inkscape:document-units="mm"
     inkscape:zoom="0.5"
     inkscape:cx="1863"
     inkscape:cy="1407"
     inkscape:window-width="2560"
     inkscape:window-height="1369"
     inkscape:window-x="-8"
     inkscape:window-y="-8"
     inkscape:window-maximized="1"
     inkscape:current-layer="layer1"
     showguides="false" /><defs
     id="defs1" /><g
     inkscape:label="Taso 1"
     inkscape:groupmode="layer"
     id="layer1"
     transform="translate(-411.786,-4.8514637)"><g
       id="g31"
       transform="translate(41.275005,-221.72096)"><path
         style="fill:#ffffff;fill-opacity:1;stroke-width:0.110164"
         d="m 384.49584,241.46496 c -0.0402,-0.0132 -0.11888,-0.0469 -0.17489,-0.075 -0.056,-0.0281 -1.00782,-0.95564 -2.11516,-2.06119 l -2.01333,-2.0101 -0.33305,0.22553 c -0.39119,0.2649 -1.02128,0.57643 -1.46235,0.72302 -2.68446,0.89223 -5.6739,-0.24485 -7.08181,-2.69367 -0.81057,-1.40986 -1.01812,-3.07376 -0.57858,-4.63843 0.62212,-2.21462 2.49363,-3.88975 4.77949,-4.27799 1.66946,-0.28354 3.35421,0.15043 4.72254,1.21647 1.06945,0.83318 1.86849,2.13267 2.1448,3.48811 0.32158,1.57748 -0.007,3.23871 -0.90098,4.55934 l -0.22545,0.33293 2.023,2.02803 c 1.36456,1.36794 2.04087,2.06597 2.0779,2.14461 0.0744,0.15796 0.075,0.48594 10e-4,0.62668 -0.075,0.14303 -0.21634,0.28623 -0.35091,0.35556 -0.12498,0.0644 -0.39654,0.0941 -0.51238,0.0562 z m -7.52603,-4.40659 c 1.78644,-0.19435 3.27007,-1.39185 3.8251,-3.08739 0.16309,-0.49821 0.21435,-0.83294 0.21435,-1.39969 0,-0.56676 -0.0513,-0.90148 -0.21435,-1.39969 -0.23022,-0.7033 -0.55617,-1.22715 -1.10712,-1.77934 -0.39011,-0.39098 -0.72073,-0.63403 -1.16565,-0.8569 -1.05576,-0.52886 -2.30253,-0.61798 -3.42622,-0.24492 -1.63752,0.54365 -2.83799,1.99061 -3.06064,3.68908 -0.0552,0.42126 -0.0552,0.76255 1.1e-4,1.18446 0.0916,0.69906 0.34119,1.34795 0.75291,1.95773 0.24774,0.36691 0.82657,0.93943 1.20126,1.18816 0.89682,0.59534 1.95205,0.86037 2.98024,0.7485 z"
         id="path13" /></g></g></svg>
