<?xml version="1.0" encoding="UTF-8" standalone="no"?>
<!-- Created with Inkscape (http://www.inkscape.org/) -->

<svg
   version="1.1"
   id="svg1"
   width="512"
   height="512"
   viewBox="0 0 512 512"
   sodipodi:docname="twitter.png"
   xmlns:inkscape="http://www.inkscape.org/namespaces/inkscape"
   xmlns:sodipodi="http://sodipodi.sourceforge.net/DTD/sodipodi-0.dtd"
   xmlns="http://www.w3.org/2000/svg"
   xmlns:svg="http://www.w3.org/2000/svg">
  <defs
     id="defs1" />
  <sodipodi:namedview
     id="namedview1"
     pagecolor="#ffffff"
     bordercolor="#000000"
     borderopacity="0.25"
     inkscape:showpageshadow="2"
     inkscape:pageopacity="0.0"
     inkscape:pagecheckerboard="0"
     inkscape:deskcolor="#d1d1d1">
    <inkscape:page
       x="0"
       y="0"
       width="512"
       height="512"
       id="page2"
       margin="0"
       bleed="0" />
  </sodipodi:namedview>
  <g
     inkscape:groupmode="layer"
     inkscape:label="Image"
     id="g1">
    <path
       style="fill:#000000"
       d="M 241.71337,505.2401 C 180.44633,498.90823 127.92687,474.02413 84.658828,430.82652 44.951909,391.18424 20.678225,343.38359 12.02664,287.79649 c -3.1203952,-20.04878 -3.1203952,-54.95122 0,-75 C 20.697538,157.0853 44.813319,109.58746 84.658828,69.741947 106.69873,47.702048 125.90771,33.883575 152.71337,20.785166 c 25.25151,-12.3389833 47.70679,-19.4274877 75,-23.6754074 20.07161,-3.123949 54.96418,-3.1210578 75,0.00621 27.71359,4.3256492 49.79192,11.2890645 75,23.6546964 26.94541,13.217864 46.04491,26.961653 68.05454,48.971277 22.00962,22.009625 35.75341,41.109128 48.97128,68.054538 12.24436,24.96087 19.40595,47.66157 23.66091,75 3.12039,20.04878 3.12039,54.95122 0,75 -4.24168,27.25314 -11.31779,49.68573 -23.65791,75 -13.09147,26.85559 -30.62982,50.79633 -52.88616,72.19231 -19.64723,18.88772 -39.58521,32.81918 -64.14266,44.81901 -25.19398,12.31087 -48.21177,19.57525 -74.69143,23.57249 -15.41062,2.32631 -47.4039,3.29683 -61.30857,1.8598 z m -14,-138.98251 c 14.00228,-1.32033 27.98755,-4.16271 39.74903,-8.07864 63.25854,-21.0616 108.83911,-82.95375 111.4626,-151.35094 0.56201,-14.65216 0.62924,-15.01056 3.18126,-16.96002 7.64088,-5.83681 26.10711,-25.53736 26.10711,-27.85217 0,-0.23792 -3.55476,0.82535 -7.89946,2.36282 -7.82138,2.76776 -23.00288,6.34884 -23.74957,5.60215 -0.21296,-0.21295 1.4563,-1.66474 3.70946,-3.22618 6.04721,-4.19072 12.14029,-11.40853 16.27825,-19.28308 2.01372,-3.83213 3.66132,-7.44481 3.66132,-8.02818 0,-0.58338 -4.1625,0.9318 -9.25,3.36705 -5.0875,2.43525 -13.2054,5.55646 -18.03978,6.93602 l -8.78977,2.50829 -5.41445,-4.41013 c -12.10613,-9.86058 -23.42034,-13.96346 -38.506,-13.96346 -16.0527,0 -29.42201,5.54743 -41.11853,17.06162 -13.31844,13.11083 -19.32499,31.19945 -16.88534,50.84988 l 0.49613,3.99613 -3.99613,-0.28043 c -40.90569,-2.87058 -79.4328,-21.31674 -108.65146,-52.02055 l -8.62767,-9.0662 -2.5261,5.68746 c -3.80191,8.55993 -4.94565,13.82217 -5.03976,23.18746 -0.16893,16.81281 5.32498,30.17257 17.37441,42.25 4.25261,4.2625 7.60116,7.75 7.44121,7.75 -2.67498,0 -16.17252,-3.35084 -19.79967,-4.91537 -2.65809,-1.14655 -5.08274,-2.08463 -5.38809,-2.08463 -0.30535,0 -0.25351,2.94458 0.11521,6.54352 0.80493,7.85653 4.13133,17.40791 8.72861,25.06318 6.21733,10.35294 20.02548,21.02983 31.62718,24.45511 2.3375,0.69012 4.25,1.59772 4.25,2.01688 0,1.19745 -12.61625,2.24178 -18.59431,1.53917 -3.68228,-0.43278 -5.40569,-0.28065 -5.40569,0.47717 0,0.61188 1.68046,4.32831 3.73435,8.25874 8.108,15.51585 23.75428,26.93794 41.75306,30.48055 l 8.51954,1.67686 -6.25348,4.19376 c -20.24402,13.57625 -45.69697,20.93102 -69.55918,20.09952 -12.06894,-0.42055 -12.09862,-0.48018 3.80245,7.64164 28.21722,14.41256 59.96266,20.48908 91.50326,17.515 z"
       id="path1" />
  </g>
</svg>
