<?xml version="1.0" encoding="UTF-8" standalone="no"?>
<!-- Created with Inkscape (http://www.inkscape.org/) -->

<svg
   width="1920"
   height="1080.001"
   viewBox="0 0 508 285.75025"
   version="1.1"
   id="svg1"
   xml:space="preserve"
   xmlns="http://www.w3.org/2000/svg"
   xmlns:svg="http://www.w3.org/2000/svg"><defs
     id="defs1"><clipPath
       clipPathUnits="userSpaceOnUse"
       id="clipPath2"><rect
         width="379.73703"
         height="213.60208"
         fill="#ffffff"
         id="rect2"
         x="-41.438885"
         y="-0.4699662"
         style="stroke-width:0.296669" /></clipPath><clipPath
       clipPathUnits="userSpaceOnUse"
       id="clipPath3"><rect
         width="379.73703"
         height="213.60208"
         fill="#ffffff"
         id="rect5"
         x="-41.438885"
         y="-0.4699662"
         style="stroke-width:0.296669" /></clipPath><clipPath
       clipPathUnits="userSpaceOnUse"
       id="clipPath5"><rect
         width="379.73703"
         height="213.60208"
         fill="#ffffff"
         id="rect6"
         x="-41.438885"
         y="-0.4699662"
         style="stroke-width:0.296669" /></clipPath></defs><g
     id="layer1"
     transform="translate(-532.08002,-257.76273)"><g
       id="g165"><rect
         width="508"
         height="285.75"
         fill="#2148c0"
         id="rect162"
         x="532.08002"
         y="257.76273"
         style="display:inline;fill:#333333;fill-opacity:1;stroke-width:0.396876" /><g
         id="g164"><circle
           cy="213.13211"
           r="107.39438"
           fill="#264eca"
           id="circle162"
           cx="-41.438885"
           style="fill:#4d4d4d;fill-opacity:1;stroke-width:0.29667"
           clip-path="url(#clipPath5)"
           transform="matrix(1.3377679,0,0,1.3377679,587.51578,258.39143)" /><circle
           cy="213.13211"
           r="84.847488"
           fill="#244bc5"
           id="circle163"
           cx="-41.438885"
           style="fill:#333333;fill-opacity:1;stroke-width:0.29667"
           clip-path="url(#clipPath3)"
           transform="matrix(1.3377679,0,0,1.3377679,587.51578,258.39143)" /><circle
           cy="213.13211"
           r="64.970634"
           fill="#274fc7"
           id="circle164"
           cx="-41.438885"
           style="fill:#4d4d4d;fill-opacity:1;stroke-width:0.29667"
           clip-path="url(#clipPath2)"
           transform="matrix(1.3377679,0,0,1.3377679,587.51578,258.39143)" /></g><path
         d="M 798.97875,313.21 C 745.1625,318.27946 708.55753,278.35761 696.98187,257.763 H 1040.08 v 285.75 h -38.4966 C 882.99718,528.46315 902.96,468.46157 927.76469,440.34205 942.25062,420.60569 968.44438,373.05317 957.33188,340.73549 943.44124,300.33839 866.24907,306.87321 798.97875,313.21 Z"
         fill="#264eca"
         id="path164"
         style="fill:#4d4d4d;fill-opacity:1;stroke-width:0.396463" /></g></g></svg>
